<?xml version="1.0" standalone="no"?><!DOCTYPE svg PUBLIC "-//W3C//DTD SVG 1.1//EN" "http://www.w3.org/Graphics/SVG/1.1/DTD/svg11.dtd"><svg t="1741844453174" class="icon" viewBox="0 0 1024 1024" version="1.1" xmlns="http://www.w3.org/2000/svg" p-id="2625" xmlns:xlink="http://www.w3.org/1999/xlink" width="200" height="200"><path d="M853.333333 0a170.666667 170.666667 0 0 1 170.666667 170.666667v682.666666a170.666667 170.666667 0 0 1-170.666667 170.666667H170.666667a170.666667 170.666667 0 0 1-170.666667-170.666667V170.666667a170.666667 170.666667 0 0 1 170.666667-170.666667h682.666666z m-25.770666 390.599111L544.540444 545.678222v324.437334l283.022223-156.444445v-323.128889zM201.898667 385.820444v319.829334l290.133333 164.408889V545.735111l-290.133333-159.857778zM517.12 165.831111L219.761778 328.817778l297.415111 161.564444 297.358222-161.564444-297.358222-162.929778z" fill="#5E5AD2" p-id="2626"></path></svg>